<?xml version="1.0" standalone="no"?>
<!DOCTYPE svg PUBLIC "-//W3C//DTD SVG 20010904//EN"
 "http://www.w3.org/TR/2001/REC-SVG-20010904/DTD/svg10.dtd">
<svg version="1.0" xmlns="http://www.w3.org/2000/svg"
 width="600.000000pt" height="600.000000pt" viewBox="0 0 600.000000 600.000000"
 preserveAspectRatio="xMidYMid meet">

<g transform="translate(0.000000,600.000000) scale(0.100000,-0.100000)"
fill="#000000" stroke="none">
<path d="M2922 5498 c-66 -89 -149 -242 -178 -328 -12 -36 -18 -84 -18 -140 0
-71 4 -95 27 -145 29 -61 72 -125 86 -125 4 0 6 14 3 30 -3 18 0 30 7 30 6 0
11 -7 11 -15 0 -23 29 -76 58 -107 23 -25 24 -33 19 -88 -6 -67 -25 -104 -66
-128 -23 -13 -31 -29 -45 -86 -9 -39 -16 -74 -16 -78 0 -5 83 -8 185 -8 123 0
185 4 185 11 0 5 -7 40 -15 77 -14 60 -20 70 -49 86 -34 18 -50 41 -59 84 -7
29 -2 28 46 -13 63 -54 197 -116 197 -91 0 3 -24 38 -53 79 -29 40 -60 93 -70
118 -17 46 -38 131 -33 136 1 2 14 -14 27 -34 30 -47 83 -83 121 -83 28 0 28
0 -33 73 -33 39 -72 94 -86 122 l-26 50 45 -47 c45 -45 101 -82 118 -76 4 2
-18 48 -50 103 -33 55 -59 103 -60 107 0 4 12 0 28 -8 25 -13 82 -20 82 -10 0
3 -24 40 -54 83 -72 106 -165 277 -217 401 -23 56 -45 102 -49 102 -4 0 -34
-37 -68 -82z"/>
<path d="M2592 4375 c-652 -135 -1199 -588 -1452 -1201 -91 -223 -138 -443
-147 -689 -12 -339 51 -641 197 -944 482 -997 1691 -1415 2685 -927 864 425
1300 1378 1058 2316 -51 201 -173 460 -298 635 -299 419 -743 709 -1240 810
-66 14 -123 21 -126 17 -4 -4 0 -28 7 -54 13 -43 18 -48 52 -53 152 -26 368
-101 521 -182 751 -394 1133 -1236 935 -2065 -24 -100 -28 -109 -69 -147 -27
-25 -61 -45 -89 -52 -43 -11 -47 -15 -144 -162 -55 -84 -129 -188 -165 -232
-67 -83 -208 -223 -264 -263 -30 -21 -33 -22 -33 -5 0 48 62 146 153 241 146
152 223 254 286 381 l32 63 -20 22 c-26 28 -70 122 -77 169 -4 20 -10 37 -13
37 -4 0 -24 -23 -45 -50 -76 -99 -336 -315 -446 -370 -59 -29 -78 -47 -102
-95 -36 -70 -40 -97 -48 -315 -5 -144 -12 -227 -21 -250 -14 -35 -14 -35 -20
52 -4 64 -13 100 -32 140 -67 137 -220 227 -439 259 l-83 12 84 23 c47 13 89
28 94 33 6 6 4 27 -7 56 -14 44 -14 47 2 40 47 -18 149 -82 223 -140 45 -36
85 -65 88 -65 19 1 31 23 45 83 32 137 83 200 260 320 127 86 285 234 368 343
l46 60 -14 68 c-8 37 -18 106 -24 153 -5 47 -11 87 -13 89 -1 2 -36 -29 -77
-67 -101 -95 -247 -205 -353 -265 l-88 -49 6 -130 c7 -147 -2 -193 -53 -267
-17 -25 -55 -61 -84 -79 -48 -31 -59 -34 -128 -34 -93 1 -155 28 -257 114
l-71 59 -20 -21 c-19 -22 -42 -60 -42 -72 0 -3 17 -5 37 -3 36 3 37 2 52 -45
10 -34 12 -53 5 -64 -6 -9 -57 -29 -119 -45 l-109 -29 -110 29 c-64 16 -114
35 -120 45 -7 11 -5 30 5 64 15 47 16 48 52 45 20 -2 37 0 37 3 0 13 -29 61
-47 78 -19 16 -21 16 -44 -9 -43 -46 -147 -115 -206 -136 -117 -41 -234 -3
-305 100 -51 74 -60 120 -53 267 l6 130 -88 49 c-106 60 -252 170 -353 265
-41 38 -75 69 -76 68 -1 -1 -7 -45 -14 -97 -6 -53 -17 -122 -24 -154 l-14 -57
41 -52 c107 -138 247 -267 409 -379 154 -105 211 -181 233 -315 13 -79 37 -77
147 15 59 50 205 138 214 130 2 -3 0 -17 -6 -32 -24 -64 -18 -72 78 -97 l87
-23 -45 -8 c-195 -34 -310 -79 -390 -154 -71 -66 -110 -149 -117 -250 l-6 -79
-15 35 c-10 25 -17 99 -22 255 -6 199 -9 225 -30 273 -24 56 -71 104 -123 126
-89 37 -383 285 -455 384 l-31 43 -11 -43 c-19 -73 -40 -121 -71 -161 l-30
-37 42 -80 c57 -107 148 -226 273 -358 102 -108 139 -165 152 -232 l7 -34 -29
21 c-124 88 -286 274 -431 495 -83 125 -110 159 -131 164 -82 18 -143 72 -163
146 -117 430 -77 879 112 1278 254 532 734 906 1312 1020 56 11 57 12 68 53
12 51 13 61 2 64 -4 1 -59 -9 -121 -22z m328 -3090 c23 -8 57 -15 75 -15 18 0
52 7 75 15 115 41 308 -8 384 -96 47 -56 60 -115 47 -212 -20 -141 -62 -220
-148 -275 -96 -62 -190 -66 -245 -12 -50 50 -33 123 48 210 26 27 44 50 41 50
-3 0 -32 -7 -64 -15 -31 -8 -94 -15 -138 -15 -44 0 -107 7 -138 15 -32 8 -61
15 -64 15 -3 0 15 -23 41 -50 81 -87 98 -160 48 -210 -55 -54 -149 -50 -245
12 -86 55 -128 134 -148 275 -13 96 0 156 47 211 76 89 269 138 384 97z"/>
<path d="M2810 1185 c-25 -13 -81 -36 -125 -51 -119 -40 -160 -81 -57 -58 78
17 256 34 367 34 111 0 289 -17 368 -34 98 -22 62 18 -48 54 -38 13 -97 36
-129 52 -58 29 -60 30 -94 14 -54 -26 -111 -30 -162 -11 -71 26 -73 26 -120 0z"/>
<path d="M2851 4221 l-74 -6 -42 -100 c-106 -255 -220 -427 -415 -629 -112
-116 -252 -233 -365 -306 l-69 -45 94 -7 c130 -10 216 -24 345 -58 216 -57
394 -142 564 -269 41 -31 82 -62 91 -69 15 -11 23 -7 61 24 59 50 210 149 282
186 203 102 443 167 686 186 l94 7 -70 47 c-352 233 -647 589 -778 938 -16 41
-33 80 -39 87 -13 14 -256 23 -365 14z m253 -545 c91 -38 156 -132 164 -237 4
-63 2 -75 -27 -134 -51 -103 -133 -155 -247 -155 -103 0 -189 51 -238 140 -88
161 -1 354 179 401 39 10 128 2 169 -15z"/>
<path d="M2937 3586 c-50 -18 -76 -42 -98 -91 -32 -69 -22 -135 29 -188 39
-41 74 -57 127 -57 56 0 92 18 133 64 114 130 -29 332 -191 272z"/>
<path d="M1692 3023 c-25 -3 -32 -8 -28 -21 9 -28 26 -193 26 -249 l0 -53 118
-119 c165 -168 309 -271 501 -358 l96 -44 -67 7 c-81 8 -89 -6 -33 -55 64 -56
139 -85 310 -122 55 -11 126 -33 158 -48 31 -15 57 -26 57 -24 0 15 -44 83
-69 107 l-30 29 52 24 c29 13 65 36 80 51 l29 27 -7 -30 c-4 -16 -16 -45 -27
-64 l-19 -34 34 -36 c19 -20 54 -65 77 -101 23 -36 43 -65 45 -65 2 0 22 29
45 65 23 36 58 81 77 101 l34 36 -19 34 c-11 19 -23 48 -27 64 l-7 30 29 -27
c15 -15 51 -38 80 -51 l52 -24 -30 -29 c-25 -24 -69 -92 -69 -107 0 -2 26 9
58 24 31 15 102 37 157 48 173 37 255 70 313 124 51 49 44 61 -35 53 l-68 -7
96 44 c190 87 335 190 499 356 l116 116 12 140 c6 77 14 149 18 161 5 19 0 22
-42 28 -78 10 -263 6 -374 -8 -327 -44 -611 -169 -839 -370 l-74 -65 -27 22
c-15 12 -56 46 -91 76 -264 224 -646 354 -1029 349 -69 -1 -140 -3 -158 -5z
m841 -338 c195 -51 329 -189 357 -369 14 -87 8 -104 -37 -112 -91 -17 -202 14
-338 96 -159 95 -198 106 -259 75 -15 -8 -30 -15 -32 -15 -11 0 -2 111 12 161
17 59 66 129 107 151 55 29 113 33 190 13z m1106 -9 c51 -27 91 -78 111 -144
17 -55 28 -172 16 -172 -2 0 -17 7 -32 15 -56 29 -92 20 -224 -56 -68 -39
-146 -80 -173 -90 -95 -38 -230 -37 -242 0 -10 34 15 154 45 217 86 176 359
302 499 230z"/>
</g>
</svg>
